<?xml version="1.0" standalone="no"?>
<!DOCTYPE svg PUBLIC "-//W3C//DTD SVG 20010904//EN"
 "http://www.w3.org/TR/2001/REC-SVG-20010904/DTD/svg10.dtd">
<svg version="1.0" xmlns="http://www.w3.org/2000/svg"
 width="810.000000pt" height="812.000000pt" viewBox="0 0 810.000000 812.000000"
 preserveAspectRatio="xMidYMid meet">

<g transform="translate(0.000000,812.000000) scale(0.100000,-0.100000)"
fill="#000000" stroke="none">
<path d="M3526 7730 c-70 -27 -109 -57 -144 -109 -45 -69 -55 -112 -50 -216 8
-149 73 -259 180 -305 45 -19 65 -22 147 -18 74 3 106 9 138 26 68 35 108 77
138 143 25 57 27 69 23 163 -6 158 -56 249 -170 305 -53 27 -72 31 -137 31
-50 -1 -93 -7 -125 -20z m198 -123 c57 -32 88 -97 93 -195 4 -66 1 -84 -19
-122 -32 -63 -77 -90 -148 -90 -50 0 -61 4 -97 35 -55 47 -78 108 -78 205 0
62 4 82 24 114 45 72 149 97 225 53z"/>
<path d="M4455 7728 c-2 -7 -18 -94 -35 -193 -17 -99 -40 -227 -51 -285 -29
-160 -31 -154 60 -166 57 -7 52 -16 77 131 9 55 21 105 26 112 11 14 63 1 90
-24 22 -20 61 -94 103 -193 15 -36 32 -70 38 -77 15 -15 139 -35 149 -25 12
12 -78 221 -113 265 -21 25 -26 38 -17 41 7 2 31 9 53 15 104 28 154 178 91
273 -36 55 -76 70 -296 109 -194 34 -170 32 -175 17z m216 -144 c104 -19 139
-41 139 -85 0 -39 -40 -79 -77 -78 -35 0 -172 24 -179 31 -5 6 17 148 24 148
2 0 44 -7 93 -16z"/>
<path d="M2895 7585 c-121 -40 -227 -78 -235 -83 -13 -8 -13 -14 -1 -48 23
-65 24 -65 107 -37 41 14 80 23 88 20 7 -3 48 -114 92 -247 l79 -242 37 6 c57
9 88 24 88 42 0 10 -34 122 -76 251 -41 128 -73 237 -69 242 3 5 39 20 81 32
42 12 78 28 81 35 7 18 -27 104 -41 103 -6 0 -110 -34 -231 -74z"/>
<path d="M5321 7469 c-116 -22 -210 -125 -256 -283 -33 -113 -2 -221 86 -300
97 -88 248 -117 351 -68 147 69 244 293 192 444 -46 137 -221 234 -373 207z
m137 -132 c108 -40 139 -151 77 -281 -61 -129 -186 -174 -275 -99 -71 59 -83
153 -31 257 56 115 134 157 229 123z"/>
<path d="M2260 7309 c-107 -59 -199 -114 -203 -121 -10 -16 284 -552 306 -556
12 -2 310 156 404 214 l23 14 -22 45 c-13 27 -29 45 -39 45 -9 0 -77 -34 -151
-75 -74 -41 -141 -75 -149 -75 -12 0 -80 113 -79 131 0 4 55 37 123 74 67 37
127 72 134 77 16 13 -24 98 -46 98 -9 0 -73 -31 -143 -70 -70 -38 -130 -70
-133 -70 -6 0 -55 96 -55 108 0 4 60 41 133 81 72 41 137 78 144 83 9 7 7 20
-9 53 -12 25 -26 46 -32 48 -6 2 -99 -44 -206 -104z"/>
<path d="M5889 7013 c-68 -87 -154 -197 -191 -244 -37 -47 -68 -91 -68 -97 0
-14 74 -72 91 -71 8 0 64 65 124 144 61 79 114 144 118 145 4 0 5 -21 2 -47
-3 -27 -12 -109 -20 -183 -8 -74 -18 -155 -21 -180 -6 -44 -5 -45 44 -82 27
-21 54 -38 59 -38 11 0 393 485 393 499 0 13 -71 71 -87 71 -13 0 -77 -73
-166 -192 -89 -118 -91 -119 -82 -18 4 47 15 148 24 225 10 77 16 145 14 151
-5 14 -87 74 -101 74 -6 0 -66 -71 -133 -157z"/>
<path d="M1801 7001 l-45 -38 135 -174 c165 -212 169 -218 169 -244 0 -54 -88
-86 -125 -45 -27 30 -49 25 -90 -21 l-37 -41 23 -25 c33 -35 78 -60 120 -68
70 -13 192 64 225 142 20 47 17 112 -9 160 -34 65 -290 392 -307 392 -8 0 -35
-17 -59 -38z"/>
<path d="M3835 6904 c-193 -13 -474 -68 -667 -130 -690 -221 -1285 -722 -1621
-1364 -131 -249 -211 -472 -267 -746 -65 -316 -67 -747 -5 -1069 80 -412 265
-827 509 -1145 470 -609 1090 -977 1851 -1097 157 -24 614 -24 770 0 311 49
559 126 825 253 653 314 1176 891 1418 1564 115 320 164 603 164 950 0 365
-58 676 -189 1010 -337 858 -1089 1505 -1988 1709 -220 51 -580 79 -800 65z
m505 -232 c30 -6 89 -15 130 -22 704 -112 1371 -570 1758 -1207 306 -504 429
-1120 341 -1703 -97 -640 -430 -1221 -929 -1621 -782 -627 -1836 -749 -2740
-318 -254 121 -486 287 -699 500 -681 677 -926 1667 -640 2583 200 639 652
1183 1249 1504 273 147 569 240 890 281 47 6 99 13 115 15 55 8 469 -2 525
-12z"/>
<path d="M3510 6284 c-6 -15 -23 -27 -52 -35 -24 -7 -50 -18 -59 -26 -8 -7
-37 -13 -63 -13 -38 0 -52 -5 -71 -26 -19 -21 -27 -24 -44 -15 -11 6 -31 11
-45 11 -13 0 -26 5 -28 11 -4 13 -76 30 -83 19 -3 -5 7 -17 21 -27 25 -19 26
-19 13 -81 -12 -56 -11 -63 5 -81 10 -11 30 -21 45 -23 36 -4 33 -22 -5 -26
-23 -2 -34 -11 -45 -34 -14 -31 -67 -58 -117 -58 -12 0 -30 -4 -40 -9 -9 -5
-36 -15 -59 -22 -38 -11 -45 -10 -63 6 -11 10 -30 23 -43 29 -14 7 -23 23 -25
41 -2 17 -11 38 -20 48 -15 16 -17 16 -39 -5 -22 -20 -26 -21 -36 -8 -9 11
-33 15 -97 15 l-85 0 -3 -30 c-3 -23 3 -35 24 -52 25 -20 27 -24 14 -37 -8 -8
-31 -19 -50 -23 -34 -9 -35 -11 -38 -60 -2 -42 1 -54 17 -65 11 -8 27 -36 36
-63 17 -47 16 -51 -16 -202 -18 -84 -36 -158 -40 -164 -5 -8 -17 -8 -43 2 -31
11 -40 11 -58 0 -12 -8 -46 -13 -76 -12 -43 1 -62 -4 -95 -27 -23 -15 -51 -32
-62 -38 -11 -6 -22 -22 -23 -35 -2 -13 -13 -34 -24 -46 -15 -16 -19 -29 -14
-47 5 -22 0 -29 -34 -52 -41 -27 -44 -32 -41 -70 1 -12 -5 -24 -13 -27 -13 -5
-13 -11 1 -54 9 -26 28 -61 44 -76 37 -37 45 -64 25 -86 -22 -24 -20 -31 8
-31 46 0 74 -17 78 -47 3 -26 7 -28 50 -31 44 -3 48 -1 84 42 21 26 43 46 49
46 7 0 11 -26 11 -72 l-1 -73 95 4 95 3 27 -31 c32 -35 47 -33 82 14 28 36 30
36 224 51 l72 6 0 -34 c-2 -83 33 -173 72 -189 16 -6 34 -21 39 -31 8 -15 18
-19 37 -15 19 3 41 -5 72 -24 25 -16 64 -37 86 -48 23 -11 44 -25 46 -32 2 -6
29 -15 60 -19 73 -10 131 -52 124 -90 -2 -14 0 -33 6 -43 6 -13 4 -31 -7 -61
-15 -40 -15 -45 5 -98 l21 -56 77 -7 c42 -3 84 -7 92 -8 11 -2 16 -18 18 -65
3 -60 5 -64 32 -74 22 -7 30 -16 30 -34 0 -13 4 -24 9 -24 28 0 9 -108 -34
-191 -10 -17 -14 -41 -11 -54 3 -13 2 -26 -3 -30 -6 -3 -4 -19 5 -40 18 -44
18 -82 -1 -136 -10 -27 -12 -46 -6 -52 5 -5 61 -13 124 -17 63 -4 119 -10 125
-14 7 -4 12 -33 12 -69 0 -34 3 -79 7 -101 l6 -38 53 4 c39 3 55 1 58 -9 6
-15 -7 -79 -30 -154 -8 -26 -14 -49 -14 -53 0 -3 18 -6 40 -6 30 0 42 -5 47
-17 3 -10 12 -25 19 -33 11 -13 19 -84 15 -132 0 -10 -13 -19 -31 -23 -16 -4
-32 -11 -35 -16 -4 -5 -19 -9 -35 -9 -20 0 -31 -6 -35 -20 -4 -13 -15 -20 -32
-20 -14 0 -41 -13 -60 -30 -18 -16 -37 -30 -42 -30 -4 0 -17 -19 -29 -43 -29
-59 -90 -127 -112 -127 -11 0 -25 -10 -31 -22 -7 -13 -19 -28 -27 -34 -12 -8
-12 -13 -3 -19 7 -4 18 -2 24 4 6 6 19 11 28 11 20 0 71 -58 94 -107 17 -36
39 -42 54 -16 8 15 14 12 50 -24 22 -23 53 -49 69 -57 16 -8 32 -22 35 -31 4
-8 23 -23 43 -32 25 -13 43 -32 61 -66 22 -45 23 -50 9 -66 -17 -19 -22 -61
-7 -61 25 0 77 50 91 86 19 51 50 94 69 94 31 0 160 126 168 163 3 16 14 34
24 40 11 7 19 17 19 23 0 26 56 117 92 152 113 107 108 99 108 156 0 28 5 57
11 63 8 8 8 17 -1 32 -16 32 -14 114 4 149 9 17 16 38 16 47 0 8 7 15 16 15 9
0 49 30 88 68 78 74 174 127 215 119 18 -4 35 3 59 24 20 18 44 29 61 29 21 0
28 5 27 16 -1 17 30 28 69 26 87 -6 207 -7 214 -2 4 3 14 18 22 35 10 21 27
34 59 45 40 14 45 19 42 43 -3 29 38 109 67 130 9 6 27 32 40 57 13 24 34 58
48 74 19 23 24 37 20 62 -7 43 14 112 41 133 16 12 23 34 31 94 6 43 16 88 22
99 7 13 9 49 4 102 -4 59 -2 98 10 146 9 36 17 74 19 85 9 55 46 103 46 60 0
-8 6 -15 14 -15 17 0 56 46 56 66 0 7 8 19 18 26 18 14 30 31 63 91 11 21 34
46 51 55 36 20 176 161 198 200 29 54 42 99 50 172 6 63 5 82 -11 117 -11 23
-19 56 -19 73 0 17 -9 49 -21 71 l-20 40 -74 -2 c-67 -3 -77 -1 -116 26 -24
17 -72 59 -106 95 -96 100 -107 110 -118 110 -6 0 -27 9 -48 20 -29 16 -56 20
-129 20 -66 1 -99 5 -112 15 -11 8 -30 15 -43 15 -13 0 -37 7 -52 15 -50 25
-107 34 -123 19 -7 -7 -27 -16 -45 -20 -30 -6 -31 -5 -30 29 1 35 -18 85 -38
99 -5 4 -18 8 -28 8 -10 0 -33 11 -51 25 -18 14 -48 28 -67 31 -19 4 -43 12
-55 19 -36 23 -131 43 -151 31 -26 -14 -52 -48 -53 -68 0 -20 -25 -24 -35 -8
-4 6 0 21 8 33 8 12 17 36 21 53 6 27 3 32 -29 47 -26 12 -41 14 -61 7 -14 -6
-43 -7 -65 -4 -49 8 -69 -7 -69 -52 0 -38 -14 -51 -36 -33 -11 9 -18 9 -32 -4
-9 -8 -41 -27 -70 -42 -39 -20 -56 -25 -64 -17 -8 8 2 25 38 64 76 81 167 170
200 198 52 43 51 130 -1 130 -8 0 -19 9 -25 20 -17 32 -51 173 -46 192 4 17
-28 68 -43 68 -4 0 -18 -9 -31 -20 -13 -11 -26 -20 -31 -20 -6 0 -35 -46 -91
-150 -30 -55 -53 -70 -100 -65 -23 2 -49 0 -59 -5 -13 -8 -22 -5 -36 13 -32
39 -71 59 -93 47 -11 -6 -36 -8 -55 -4 -34 6 -35 5 -35 -24 0 -17 -3 -33 -7
-35 -5 -3 -41 0 -81 4 -52 7 -79 6 -95 -3 -22 -11 -72 -25 -135 -35 -44 -7
-92 35 -92 81 0 17 -7 40 -15 50 -26 34 -14 95 28 142 17 20 17 24 3 52 -9 17
-21 32 -28 34 -8 3 -13 21 -13 44 0 37 -1 39 -33 40 -26 1 -36 -4 -42 -22z
m1290 -803 c0 -12 -29 -35 -36 -28 -11 10 5 37 21 37 8 0 15 -4 15 -9z m-40
-61 c0 -5 -5 -10 -11 -10 -5 0 -7 5 -4 10 3 6 8 10 11 10 2 0 4 -4 4 -10z
m-360 -3388 c0 -10 -11 -29 -25 -42 -14 -13 -25 -31 -25 -41 0 -22 -108 -105
-121 -92 -11 11 33 74 69 99 12 8 31 33 42 55 22 42 60 55 60 21z"/>
<path d="M6379 6480 c-128 -111 -238 -207 -243 -215 -7 -9 8 -33 54 -87 171
-196 207 -222 310 -222 87 -1 156 32 245 115 122 114 155 230 98 338 -27 48
-209 271 -223 271 -3 0 -112 -90 -241 -200z m292 -38 c54 -67 69 -93 69 -122
0 -88 -196 -256 -276 -236 -32 8 -158 128 -153 145 4 11 300 270 309 271 3 0
26 -26 51 -58z"/>
<path d="M1377 6539 c-129 -20 -255 -163 -265 -300 -2 -31 1 -74 8 -95 46
-149 237 -286 378 -272 144 14 279 157 290 308 4 58 1 75 -23 128 -35 79 -121
162 -207 201 -73 34 -115 40 -181 30z m111 -151 c26 -12 70 -45 99 -74 82 -82
93 -169 29 -242 -80 -92 -203 -78 -308 35 -78 84 -86 166 -23 241 53 63 124
77 203 40z"/>
<path d="M6880 5959 c-229 -90 -312 -261 -221 -453 54 -112 160 -186 266 -186
124 0 279 89 342 197 77 132 8 349 -137 427 -73 40 -171 46 -250 15z m217
-145 c54 -41 68 -70 68 -144 0 -67 -1 -70 -38 -108 -46 -47 -129 -90 -190 -98
-117 -16 -214 99 -177 210 22 67 63 103 165 148 52 23 136 19 172 -8z"/>
<path d="M908 5913 c-34 -10 -56 -25 -81 -56 -39 -48 -189 -325 -184 -340 4
-12 537 -297 557 -297 8 0 27 24 43 52 32 62 35 58 -88 123 -121 64 -118 61
-100 96 26 48 54 59 206 77 l143 17 32 55 c35 58 42 90 22 90 -62 0 -249 -25
-276 -36 -19 -8 -36 -14 -38 -14 -2 0 -4 25 -4 56 0 61 -9 85 -49 128 -46 50
-116 69 -183 49z m76 -144 c13 -7 30 -25 37 -40 10 -26 7 -38 -29 -114 -23
-47 -48 -88 -56 -91 -14 -6 -110 38 -121 55 -8 13 60 147 90 177 27 27 43 29
79 13z"/>
<path d="M7153 5217 c-155 -45 -287 -87 -293 -93 -15 -15 11 -108 32 -112 9
-2 94 19 189 47 95 27 176 48 178 45 3 -2 -9 -19 -26 -37 -185 -197 -273 -300
-273 -318 0 -36 22 -111 35 -115 16 -7 608 164 616 177 7 11 -16 98 -29 111
-4 4 -61 -9 -127 -28 -200 -58 -255 -72 -255 -64 0 4 70 83 155 175 85 92 155
173 155 180 0 6 -7 35 -15 63 -13 43 -20 52 -38 51 -12 0 -149 -37 -304 -82z"/>
<path d="M625 5215 c-67 -23 -106 -77 -137 -191 -43 -155 -60 -236 -51 -245
13 -13 617 -160 623 -151 10 11 30 86 30 109 0 18 -14 24 -101 44 -56 13 -108
29 -114 34 -10 8 -9 26 6 85 35 142 20 223 -51 278 -51 39 -148 57 -205 37z
m113 -151 c38 -26 44 -56 25 -139 -18 -86 -16 -84 -118 -59 -41 10 -65 22 -65
30 0 36 36 137 56 159 27 29 69 33 102 9z"/>
<path d="M7517 4676 c-47 -17 -71 -38 -91 -81 -21 -44 -20 -83 3 -125 72 -136
281 -88 281 65 0 106 -96 176 -193 141z m86 -40 c47 -20 69 -50 71 -95 2 -76
-63 -123 -148 -107 -96 18 -101 161 -7 200 45 19 45 19 84 2z"/>
<path d="M7543 4585 c-54 -25 -74 -52 -29 -41 32 8 42 -9 22 -39 -18 -27 -21
-55 -6 -55 5 0 14 9 20 21 9 15 18 19 34 15 51 -13 71 69 27 107 -14 13 -22
12 -68 -8z m63 -30 c4 -8 3 -23 -1 -32 -6 -17 -7 -17 -21 1 -8 11 -14 26 -14
33 0 18 29 16 36 -2z"/>
<path d="M7250 3411 c-13 -25 -13 -97 0 -121 8 -15 6 -21 -10 -30 -13 -7 -20
-21 -20 -40 0 -17 3 -30 7 -30 3 0 94 -21 201 -46 121 -29 198 -42 203 -37 6
6 11 23 12 39 2 29 2 29 -118 60 -66 17 -132 37 -147 44 -37 18 -62 73 -54
121 7 41 5 43 -36 53 -21 5 -30 2 -38 -13z"/>
<path d="M877 3402 c-22 -24 -21 -55 1 -75 24 -22 45 -21 65 1 22 24 21 55 -1
75 -24 22 -45 21 -65 -1z"/>
<path d="M600 3339 c-243 -58 -225 -51 -223 -84 4 -55 -9 -55 273 11 58 13
115 27 128 29 16 4 22 12 22 33 0 26 -16 53 -29 51 -4 0 -80 -18 -171 -40z"/>
<path d="M645 3186 c-22 -6 -84 -26 -137 -44 -85 -29 -98 -37 -98 -56 0 -12 6
-30 13 -39 11 -16 23 -14 152 29 138 45 141 46 178 30 27 -11 42 -26 53 -51
31 -75 -5 -117 -142 -164 -166 -56 -167 -57 -159 -88 3 -16 10 -32 15 -37 8
-8 206 52 265 82 72 35 115 96 115 164 -1 136 -116 215 -255 174z"/>
<path d="M7222 3079 c-159 -79 -160 -294 -2 -383 46 -26 66 -31 121 -31 90 0
152 37 192 114 47 94 30 161 -41 161 -22 0 -24 -3 -18 -35 9 -48 -22 -118 -63
-139 -66 -35 -175 -6 -206 54 -21 40 -19 99 5 137 42 70 102 73 253 15 59 -23
112 -42 116 -42 5 0 14 14 21 31 17 41 10 47 -127 98 -130 47 -186 52 -251 20z"/>
<path d="M864 2812 c-94 -43 -183 -85 -197 -95 -41 -27 -60 -73 -54 -127 11
-92 40 -120 86 -82 19 15 20 21 9 54 -18 61 -2 82 98 128 47 22 92 40 100 40
7 0 23 -23 35 -51 20 -46 24 -50 48 -44 48 12 54 26 32 76 -12 24 -21 49 -21
55 0 6 18 19 40 29 23 10 43 22 46 26 7 13 -25 69 -39 68 -6 0 -89 -35 -183
-77z"/>
<path d="M7042 2657 c-111 -42 -171 -158 -137 -262 21 -62 65 -110 130 -141
140 -66 291 13 319 168 6 35 4 39 -25 57 -18 11 -36 18 -39 16 -4 -3 -10 -28
-14 -57 -6 -42 -14 -59 -45 -90 -35 -34 -44 -38 -90 -38 -29 0 -65 7 -80 15
-38 19 -78 68 -86 104 -9 43 25 115 67 141 52 33 107 22 251 -52 105 -54 125
-68 140 -100 28 -57 11 -111 -68 -214 -12 -16 20 -54 45 -54 23 0 87 94 106
156 17 55 12 99 -17 155 -26 51 -63 77 -204 144 -128 61 -194 75 -253 52z"/>
<path d="M915 2581 c-50 -13 -90 -38 -128 -80 -90 -100 -70 -253 45 -328 36
-24 52 -28 115 -28 85 0 98 10 78 59 -13 30 -15 31 -67 28 -92 -6 -153 52
-145 137 6 55 31 90 88 119 64 34 122 26 166 -22 24 -26 33 -45 33 -71 0 -20
-5 -35 -12 -35 -6 0 -54 23 -106 51 l-95 51 -18 -23 c-22 -29 -23 -33 -6 -47
35 -29 262 -152 273 -148 21 8 45 65 51 120 13 136 -133 253 -272 217z"/>
<path d="M6794 2261 c-79 -36 -133 -135 -120 -218 15 -86 92 -170 178 -194
128 -34 268 71 268 202 0 54 -11 89 -43 136 -26 39 -36 41 -65 10 -27 -29 -27
-40 -3 -75 38 -52 32 -115 -15 -158 -29 -28 -43 -34 -80 -34 -87 0 -145 51
-152 133 -4 50 -2 56 32 91 50 54 62 45 57 -40 -10 -148 -10 -149 26 -152 27
-3 33 1 37 20 11 51 27 278 21 287 -10 17 -96 12 -141 -8z"/>
<path d="M1125 2186 c-157 -74 -192 -249 -74 -364 47 -46 75 -51 106 -20 l25
26 -38 21 c-53 30 -76 65 -82 120 -4 51 19 97 71 135 43 31 126 29 162 -4 54
-50 67 -102 42 -163 -17 -40 -211 -194 -263 -208 -30 -9 -43 -7 -82 13 -36 18
-53 36 -81 85 -32 56 -39 62 -61 57 -42 -9 -45 -20 -19 -75 65 -140 192 -198
304 -141 65 33 229 168 256 211 54 85 47 180 -19 253 -70 78 -157 97 -247 54z"/>
<path d="M6555 1996 c-14 -19 -29 -50 -32 -70 -5 -30 -10 -36 -30 -36 -15 0
-27 -9 -35 -25 -11 -23 -8 -28 23 -54 19 -16 90 -76 159 -134 131 -110 144
-115 170 -67 9 16 -4 31 -94 109 -131 114 -141 136 -100 217 l28 56 -24 19
c-33 25 -35 24 -65 -15z"/>
<path d="M1396 1778 c-79 -73 -147 -141 -151 -151 -8 -20 19 -57 42 -57 7 0
54 38 104 85 109 102 149 119 201 87 70 -45 76 -47 98 -27 32 29 25 53 -27 85
-26 17 -55 30 -66 30 -14 0 -17 5 -12 21 7 20 -18 59 -37 59 -4 0 -73 -60
-152 -132z"/>
<path d="M6363 1778 l-43 -42 -33 32 c-40 39 -47 39 -77 7 l-24 -26 144 -145
c80 -80 157 -152 172 -160 46 -24 100 -18 154 19 55 36 63 56 37 86 -22 26
-24 26 -69 -4 -58 -39 -77 -34 -160 47 -41 39 -74 76 -74 82 0 6 19 29 41 52
l42 42 -28 26 c-15 14 -31 26 -34 26 -4 0 -25 -19 -48 -42z"/>
<path d="M1625 1651 c-161 -75 -184 -292 -41 -388 59 -40 97 -43 120 -8 21 31
16 41 -25 49 -19 3 -48 23 -71 46 -33 36 -38 47 -38 88 0 101 103 177 192 143
37 -14 77 -60 84 -96 10 -53 -11 -95 -91 -185 -79 -89 -87 -111 -49 -137 20
-13 25 -11 67 34 120 128 156 188 157 261 1 152 -166 258 -305 193z"/>
<path d="M6146 1576 c-43 -16 -91 -58 -112 -98 -22 -42 -17 -117 10 -164 39
-68 169 -224 186 -224 24 0 54 36 44 52 -4 7 -45 59 -91 116 -74 91 -83 107
-83 143 0 87 100 131 169 74 16 -14 62 -66 101 -115 40 -50 77 -90 83 -90 19
1 47 26 47 42 0 14 -138 189 -174 221 -57 48 -122 64 -180 43z"/>
<path d="M2018 1393 c-18 -27 -72 -102 -121 -168 l-88 -120 26 -22 c14 -13 31
-23 38 -23 7 1 43 44 81 96 96 134 136 155 216 114 21 -11 45 -17 53 -14 20 7
41 50 32 64 -11 18 -86 50 -118 50 -23 0 -27 3 -22 19 4 13 -1 24 -17 35 -34
24 -44 20 -80 -31z"/>
<path d="M5788 1326 c-57 -20 -85 -42 -116 -88 -23 -36 -27 -51 -27 -118 0
-68 3 -82 30 -126 19 -29 49 -60 78 -78 159 -98 353 18 334 201 -8 74 -24 90
-66 69 -30 -16 -31 -17 -24 -76 7 -68 -7 -98 -60 -130 -64 -39 -142 -15 -188
59 -42 66 -38 121 14 178 22 25 83 41 98 26 6 -6 -7 -45 -36 -105 -25 -52 -45
-100 -45 -105 0 -14 46 -37 58 -29 6 4 40 68 77 143 73 153 73 154 -8 178 -61
18 -71 18 -119 1z"/>
<path d="M2488 1131 c-74 -24 -116 -66 -160 -161 -15 -30 -54 -113 -87 -184
-34 -71 -61 -135 -61 -142 0 -14 30 -34 53 -34 8 0 47 73 95 178 46 98 91 191
101 208 21 34 75 64 117 64 39 0 109 -44 122 -77 20 -54 21 -62 10 -100 -16
-57 -43 -90 -93 -109 -39 -15 -52 -15 -88 -4 -23 7 -56 27 -74 46 -38 41 -46
42 -61 9 -18 -40 -15 -51 26 -85 54 -45 130 -65 192 -50 198 47 247 315 76
415 -48 28 -124 40 -168 26z"/>
<path d="M4792 1055 c-5 -10 -29 -18 -63 -22 -29 -3 -62 -10 -72 -15 -20 -10
-48 -68 -41 -80 9 -14 34 -8 54 12 15 15 33 20 70 20 42 0 55 5 75 26 31 33
34 74 5 74 -10 0 -23 -7 -28 -15z"/>
<path d="M5184 1041 c-54 -14 -103 -51 -132 -99 -36 -62 -38 -165 -4 -229 91
-174 346 -158 401 26 50 167 -104 342 -265 302z m114 -101 c74 -45 98 -158 47
-219 -69 -82 -189 -54 -230 53 -34 89 25 186 115 186 19 0 50 -9 68 -20z"/>
<path d="M2895 965 c-128 -49 -190 -221 -121 -339 38 -65 95 -99 173 -104 l62
-4 15 37 c9 21 16 39 16 41 0 2 -23 4 -51 4 -98 0 -159 53 -159 138 0 23 9 60
19 80 58 114 234 86 248 -39 4 -33 -4 -69 -31 -148 -20 -57 -36 -113 -36 -123
0 -16 34 -38 60 -38 10 0 43 85 75 196 29 99 24 148 -19 212 -55 82 -164 120
-251 87z"/>
<path d="M4757 899 c-80 -18 -123 -54 -158 -133 -17 -39 -20 -59 -15 -99 24
-176 175 -265 325 -191 53 27 53 27 48 66 -3 22 -8 42 -10 45 -3 2 -23 -8 -46
-22 -54 -37 -116 -42 -159 -16 -47 30 -72 77 -72 134 0 87 50 137 136 137 42
0 51 -4 82 -37 30 -32 40 -57 67 -158 25 -99 34 -120 50 -123 11 -1 29 4 39
11 19 14 19 17 -12 138 -37 144 -66 192 -132 225 -56 28 -94 34 -143 23z"/>
<path d="M3280 858 c-16 -40 -80 -392 -73 -399 14 -12 62 -19 68 -10 3 5 16
64 30 130 13 67 29 129 34 139 20 38 53 57 109 62 52 5 56 7 64 35 4 16 3 34
-2 39 -13 13 -117 11 -133 -2 -10 -9 -17 -7 -30 8 -23 27 -55 25 -67 -2z"/>
<path d="M4326 839 c-53 -13 -93 -44 -118 -92 -19 -38 -20 -52 -15 -167 4 -69
10 -142 13 -163 7 -37 8 -38 43 -35 41 3 38 -18 26 188 -7 118 -6 126 14 152
31 39 80 53 124 34 55 -22 64 -46 78 -198 7 -85 17 -142 24 -148 7 -6 25 -8
39 -4 21 5 26 12 26 39 0 74 -21 243 -35 281 -20 52 -69 99 -120 113 -45 12
-46 12 -99 0z"/>
<path d="M3584 805 c-125 -75 -148 -261 -44 -365 49 -49 127 -76 193 -66 50 8
62 17 72 57 9 35 -5 42 -58 28 -156 -39 -261 150 -143 259 31 28 43 32 91 32
49 0 60 -4 93 -34 l37 -34 0 -84 c0 -46 -2 -114 -5 -153 l-5 -70 36 -3 c25 -2
38 2 42 12 3 8 9 75 13 148 7 149 2 171 -60 236 -42 45 -86 62 -160 62 -47 0
-70 -6 -102 -25z"/>
</g>
</svg>
